# xmcd
#
# Track frame offsets:
#	150
#	17193
#	36366
#	49692
#	67060
#	86015
#	108722
#	122767
#	139993
#	154414
#	174294
#	184486
#	200641
#	212647
#	228007
#	247709
#	259166
#	276346
#	292748
#	312963
#
# Disc length: 4419 seconds
#
# Revision: 0
# Processed by: cddbd v1.5.1PL2 Copyright (c) Steve Scherf et al.
# Submitted via: dBpowerAMP V4.0
#
DISCID=2b114114
DTITLE=VARIOS CUBANOS - LA BODEGUITA DEL MEDIO
DYEAR=1900
DGENRE=
TTITLE0=1.Hasta Siempre - Carlos Pueblas
TTITLE1=2.Chan Chan - Compay Segundo
TTITLE2=3.Guajira, Guantanamera - Joseito Fernandez
TTITLE3=4.Guajiro Natural - Polo Montaner
TTITLE4=5.Santa Barbara -  Celina Gonzales
TTITLE5=6. Idilio - Laito y su sonora
TTITLE6=7.Cuidadito, Compay Gallo - Ñico Saquito
TTITLE7=8.Píntate Los Labios Maria -  Elíades Ochoa
TTITLE8=9.Te quedarás - Benny Moore
TTITLE9=10.Échale Salsita - Septeto Nacional de Ignacio Piñeiro
TTITLE10=11.El Manisero - Bola De Nieve
TTITLE11=12. Son de la Loma - Trio Matamoros
TTITLE12=13.Siboney - Ernesto Lecuona
TTITLE13=14.Dos Gardenias - Omara Portuondo
TTITLE14=15.Veinte Años - Maria Teresa Vera
TTITLE15=16.La Caminadora - Los Zafiros
TTITLE16=17.Cuida'o Cuida'o - David Álvarez y Juego de Manos
TTITLE17=18.Tu Me Acostumbrastes - Frank Dominguez
TTITLE18=19.Guayabita del Pinar - Cándido Fabre y La Original del Manzanillo
TTITLE19=20. El cuarto de Tula - Compay Segundo y Elíades Ochoa
EXTD=
EXTT0=
EXTT1=
EXTT2=
EXTT3=
EXTT4=
EXTT5=
EXTT6=
EXTT7=
EXTT8=
EXTT9=
EXTT10=
EXTT11=
EXTT12=
EXTT13=
EXTT14=
EXTT15=
EXTT16=
EXTT17=
EXTT18=
EXTT19=
PLAYORDER=
